/* XPM */
static char * icon_xpm[] = {
"40 40 2 1",
" 	c None",
".	c #00FF00",
"                                        ",
"                                        ",
"                                        ",
"                                        ",
"                                        ",
"                                        ",
"                                        ",
"                                        ",
"                                        ",
"                                        ",
"                                        ",
"                                        ",
"                                        ",
"                                        ",
"     ...     ..   ........    .....     ",
"     ...     ..   ........   .......    ",
"     ....    ..   ..        ...    .    ",
"     ....    ..   ..        ..          ",
"     .. ..   ..   ..        ..          ",
"     .. ..   ..   ........   .....      ",
"     ..  ..  ..   ........    ......    ",
"     ..   .. ..   ..              ...   ",
"     ..   .. ..   ..               ..   ",
"     ..    ....   ..               ..   ",
"     ..    ....   ..        .     ...   ",
"     ..     ...   ........  ........    ",
"     ..     ...   ........   ......     ",
"                                        ",
"                                        ",
"                                        ",
"                                        ",
"                                        ",
"                                        ",
"                                        ",
"                                        ",
"                                        ",
"                                        ",
"                                        ",
"                                        ",
"                                        "};
